<svg xmlns="http://www.w3.org/2000/svg" width="17.626" height="20.145" viewBox="0 0 17.626 20.145"><defs><style>.a{fill:#f97173;}</style></defs><path class="a" d="M1.259,18.256a1.889,1.889,0,0,0,1.889,1.889H14.479a1.889,1.889,0,0,0,1.889-1.889V5.036H1.259Zm10.7-10.072a.63.63,0,0,1,1.259,0V17a.63.63,0,1,1-1.259,0Zm-3.777,0a.63.63,0,0,1,1.259,0V17a.63.63,0,1,1-1.259,0Zm-3.777,0a.63.63,0,0,1,1.259,0V17a.63.63,0,1,1-1.259,0ZM17,1.259H12.276l-.37-.736A.944.944,0,0,0,11.06,0h-4.5a.933.933,0,0,0-.842.523l-.37.736H.63a.63.63,0,0,0-.63.63V3.148a.63.63,0,0,0,.63.63H17a.63.63,0,0,0,.63-.63V1.889A.63.63,0,0,0,17,1.259Z"/></svg>